<?xml version="1.0" encoding="iso-8859-1"?>
<!-- Generator: Adobe Illustrator 16.0.0, SVG Export Plug-In . SVG Version: 6.00 Build 0)  -->
<!DOCTYPE svg PUBLIC "-//W3C//DTD SVG 1.1//EN" "http://www.w3.org/Graphics/SVG/1.1/DTD/svg11.dtd">
<svg version="1.1" id="Capa_1" xmlns="http://www.w3.org/2000/svg" xmlns:xlink="http://www.w3.org/1999/xlink" x="0px" y="0px"
	 width="197.729px" height="197.729px" viewBox="0 0 197.729 197.729" style="enable-background:new 0 0 197.729 197.729;"
	 xml:space="preserve">
<g>
	<path d="M194.36,78.591c-2.884,0-8.665,0.016-8.761,0.007c-2.303-21.71-10.137-37.9-23.311-48.143
		c-17.658-13.729-38.953-12.125-43.976-11.514c-0.964-2.604-2.169-4.726-3.618-6.35c-2.741-3.071-6.396-4.506-10.564-4.148
		c-15.65,1.341-22.503,8.264-25.486,13.611c-1.049-1.045-2.302-2.122-3.759-3.101c-4.825-3.241-12.814-6.028-23.469-0.898
		c-10.387,5.001-13.947,11.461-15.104,16c-0.278,1.091-0.435,2.124-0.509,3.079c-1.251-0.302-2.664-0.526-4.196-0.58
		c-5.191-0.184-12.617,1.608-18.59,11.165C5.371,59.955,9.18,72.256,12.203,78.533c-2.871-0.002-6.315,0-9.122,0
		C1.217,78.533,0,79.503,0,81.368c0,23.013,0.65,41.838,8.828,57.197c7.267,13.648,20.109,24.115,42.295,34.247
		c-2.599,2.881-4.231,7.604-4.231,13.151c0,1.864,1.511,3.375,3.375,3.375h90.987c1.863,0,3.375-1.511,3.375-3.375
		c0-4.99-1.322-9.312-3.478-12.227c23.94-10.651,39.09-23.117,47.44-38.959c8.438-16.009,9.137-34.093,9.137-52.765
		C197.729,80.149,196.225,78.591,194.36,78.591z M158.202,35.827c11.487,8.961,18.408,23.331,20.603,42.735
		c-4.035-0.013-8.106-0.025-12.209-0.039c-0.002-0.14-0.01-0.279-0.03-0.421c-1.933-13.528-7.443-23.536-16.378-29.746
		c-10.469-7.275-22.775-7.296-29.031-6.697c0.084-6.239-0.284-11.613-1.098-16.108C125.622,25.048,143.641,24.468,158.202,35.827z
		 M120.68,51.886c0.088-1.156,0.162-2.288,0.228-3.398c4.878-0.556,16.28-0.972,25.474,5.443
		c7.188,5.017,11.694,13.285,13.414,24.569c-14.131-0.051-28.572,0.092-42.703,0.033C117.698,75.35,119.74,64.198,120.68,51.886z
		 M104.708,15.167c2.079-0.179,3.608,0.413,4.95,1.917c2.373,2.659,6.086,10.64,4.295,34.224
		c-1.059,13.933-3.566,26.479-3.592,26.604c-0.025,0.13-0.064,0.491-0.076,0.62c-5.465-0.023-10.962,0.021-16.453,0
		c1.677-26.396-5.574-42.812-10.465-50.476C84.284,24.967,88.277,16.575,104.708,15.167z M54.346,24.137
		c6.161-2.966,11.742-2.867,16.587,0.294c3.824,2.495,5.848,6.034,5.86,6.057c3.922,6.844,12.005,22.564,10.302,48.045
		c-8.341-0.033-16.649,0.028-24.905,0c-1.855-23.279-15.407-35.309-19.56-38.346C42.193,37.572,42.154,30.007,54.346,24.137z
		 M55.427,78.533c-12.211-0.039-23.934-0.044-35.508-0.06c-1.855-2.863-8.75-15.058-1.176-27.176
		c7.819-12.512,17.649-7.29,19.148-6.188C40.77,47.228,53.346,55.353,55.427,78.533z M133.219,169.792
		c-0.013,0.006-0.023,0.011-0.035,0.016h-14.43c-1.863,0-3.375,1.512-3.375,3.375c0,1.864,1.512,3.375,3.375,3.375h15.426
		c0.998,0,2.715,2.268,3.402,6.029H53.94c0.687-3.762,2.404-6.029,3.404-6.029h35.76c1.864,0,3.375-1.511,3.375-3.375
		c0-1.863-1.511-3.375-3.375-3.375H61.125c-0.008-0.003-0.015-0.008-0.023-0.011c-25.221-10.511-39.072-20.801-46.316-34.406
		c-6.492-12.191-7.914-26.775-8.027-50.586c32.906,0.011,181.536,0.581,184.208,0.581
		C192.504,117.533,187.034,143.983,133.219,169.792z"/>
</g>
<g>
</g>
<g>
</g>
<g>
</g>
<g>
</g>
<g>
</g>
<g>
</g>
<g>
</g>
<g>
</g>
<g>
</g>
<g>
</g>
<g>
</g>
<g>
</g>
<g>
</g>
<g>
</g>
<g>
</g>
</svg>
