<?xml version="1.0" standalone="no"?>
<!DOCTYPE svg PUBLIC "-//W3C//DTD SVG 20010904//EN"
 "http://www.w3.org/TR/2001/REC-SVG-20010904/DTD/svg10.dtd">
<svg version="1.0" xmlns="http://www.w3.org/2000/svg"
 width="142.000000pt" height="142.000000pt" viewBox="0 0 142.000000 142.000000"
 preserveAspectRatio="xMidYMid meet">
<metadata>
Created by potrace 1.11, written by Peter Selinger 2001-2013
</metadata>
<g transform="translate(0.000000,142.000000) scale(0.100000,-0.100000)"
fill="#000000" stroke="none">
<path d="M665 1216 c-12 -8 -33 -12 -56 -9 -31 5 -41 1 -62 -22 -31 -33 -39
-41 -71 -70 -15 -14 -26 -35 -26 -49 0 -28 33 -64 66 -72 14 -4 25 -19 33 -44
l11 -39 39 14 c45 15 131 25 131 15 0 -4 -26 -10 -58 -12 -150 -14 -273 -131
-306 -289 l-12 -60 -37 54 c-21 30 -36 64 -35 78 1 26 -123 241 -129 222 -3
-9 41 -94 81 -155 10 -16 16 -28 13 -28 -3 0 -28 36 -56 80 -28 44 -55 80 -61
80 -12 0 2 -29 55 -117 54 -89 42 -88 -15 2 -56 89 -70 106 -70 85 0 -7 28
-60 61 -117 48 -82 65 -102 79 -98 14 4 29 -13 68 -74 61 -96 106 -201 86
-201 -7 0 -34 19 -59 43 -26 23 -60 54 -76 68 -19 17 -27 32 -23 42 7 18 -20
80 -43 99 -14 11 -14 9 0 -19 10 -18 17 -43 17 -58 0 -21 -5 -25 -28 -25 -15
0 -37 7 -50 15 -23 17 -65 84 -77 123 -5 18 -2 22 17 23 21 0 22 1 3 8 -35 14
-42 3 -40 -59 2 -46 8 -67 28 -93 32 -42 84 -68 122 -61 25 4 38 -4 101 -67
51 -51 77 -70 89 -65 13 4 15 2 10 -13 -9 -30 13 -35 26 -7 7 14 16 23 20 20
13 -8 11 -21 -6 -38 -8 -8 -11 -17 -7 -20 5 -3 30 12 56 34 97 80 163 82 407
14 129 -37 190 -33 245 13 29 24 57 81 49 100 -3 9 2 26 10 39 9 13 12 24 8
24 -3 0 3 10 15 23 12 13 19 26 16 30 -6 6 54 47 69 47 4 0 -2 -17 -13 -37
-11 -21 -20 -40 -20 -43 0 -3 27 -5 59 -5 33 0 59 2 58 5 -1 3 7 20 17 38 9
19 16 36 13 38 -2 2 -12 -12 -23 -31 -14 -27 -25 -35 -47 -35 -39 0 -43 22
-14 75 14 25 23 45 21 45 -27 0 -161 -87 -228 -150 l-50 -45 24 40 c74 123 90
143 108 138 15 -4 31 16 81 101 35 58 60 110 56 116 -4 7 -30 -27 -61 -77 -63
-102 -73 -101 -13 2 60 102 61 105 50 105 -6 0 -33 -36 -62 -80 -28 -44 -53
-80 -56 -80 -2 0 4 15 15 33 59 96 83 140 79 150 -6 19 -129 -193 -131 -226
-1 -19 -17 -54 -40 -84 -21 -29 -39 -53 -40 -53 -1 0 -3 18 -4 41 -9 145 -136
283 -292 318 l-45 10 50 -5 c28 -3 58 -10 67 -15 18 -10 22 -6 38 37 l10 29
-18 -23 c-18 -23 -20 -23 -73 -10 -57 15 -124 16 -199 4 -36 -5 -41 -5 -26 5
10 6 42 15 70 20 46 7 43 8 -20 4 l-71 -5 -28 45 c-16 24 -31 43 -33 40 -3 -2
1 -11 8 -20 7 -8 8 -15 2 -15 -17 0 -34 28 -30 51 2 13 16 29 35 38 17 9 36
26 42 38 12 26 51 39 78 25 14 -8 24 -5 42 9 13 10 32 19 42 19 23 0 69 -21
69 -31 0 -4 19 -7 42 -6 35 2 45 -2 53 -20 5 -12 21 -25 35 -28 30 -8 40 -21
40 -55 0 -47 -50 -59 -93 -22 -13 12 -20 13 -29 4 -17 -17 -24 -15 -48 10 -16
17 -23 19 -32 10 -16 -16 -38 -15 -57 2 -14 13 -19 12 -41 -11 l-25 -26 24 12
c19 10 28 11 47 1 12 -7 33 -10 45 -7 12 3 32 -1 44 -9 13 -8 29 -14 37 -12 7
1 28 -3 45 -11 59 -24 113 6 113 62 0 40 -25 77 -52 77 -11 0 -33 14 -49 31
-24 26 -33 30 -59 24 -20 -4 -37 -1 -52 9 -28 20 -88 21 -113 2z m192 -341
c69 -34 128 -92 156 -153 23 -51 32 -86 19 -78 -4 2 -7 -15 -6 -39 2 -52 -6
-96 -15 -91 -3 2 -6 -9 -7 -25 -1 -24 -64 -138 -64 -116 0 4 11 24 24 45 13
20 27 48 31 62 4 14 -7 4 -24 -25 -56 -92 -51 -89 -118 -70 -75 22 -83 24
-178 41 l-80 14 70 -4 c59 -3 65 -3 35 6 -19 5 -59 8 -87 5 -29 -3 -51 -1 -48
3 3 4 -12 4 -33 -2 -76 -19 -111 -19 -121 1 -22 40 -29 133 -15 197 43 206
273 320 461 229z m-782 -297 c4 -7 -3 -2 -14 11 -12 13 -21 31 -21 40 0 14 6
6 35 -51z m975 42 c0 -5 -2 -10 -4 -10 -3 0 -8 5 -11 10 -3 6 -1 10 4 10 6 0
11 -4 11 -10z m-3 -57 c-3 -10 -5 -4 -5 12 0 17 2 24 5 18 2 -7 2 -21 0 -30z
m173 14 c0 -1 -20 -20 -45 -40 -55 -46 -59 -42 -7 7 32 31 52 44 52 33z m-30
-51 c0 -2 -8 -10 -17 -17 -16 -13 -17 -12 -4 4 13 16 21 21 21 13z m-155 -38
c-9 -39 -34 -92 -42 -85 -2 3 2 16 10 29 8 12 18 38 22 56 4 17 9 32 12 32 2
0 1 -15 -2 -32z m89 -14 c9 -3 16 -10 16 -15 0 -6 -7 -6 -18 0 -11 6 -24 6
-33 0 -11 -7 -9 -9 9 -9 17 0 22 -6 22 -24 0 -33 -44 -66 -86 -66 l-33 0 27
44 c15 24 38 51 52 60 30 18 25 17 44 10z m-614 -55 c-24 -11 -48 -25 -52 -32
-6 -9 -8 -9 -8 0 0 14 66 52 90 52 8 0 -5 -9 -30 -20z m-50 1 c-8 -5 -19 -10
-25 -10 -5 0 -3 5 5 10 8 5 20 10 25 10 6 0 3 -5 -5 -10z m127 4 c-3 -3 -12
-4 -19 -1 -8 3 -5 6 6 6 11 1 17 -2 13 -5z m-52 -16 c-11 -6 -32 -20 -47 -30
-16 -11 -28 -17 -28 -14 0 8 73 56 85 56 5 0 1 -6 -10 -12z m455 -22 c0 -2 -8
-10 -17 -17 -16 -13 -17 -12 -4 4 13 16 21 21 21 13z"/>
<path d="M714 805 c-10 -8 -14 -15 -7 -15 24 0 2 -26 -23 -28 -42 -3 -119 -51
-150 -92 -19 -26 -41 -42 -63 -47 -19 -5 -39 -16 -45 -26 -9 -14 -6 -22 19
-41 17 -14 41 -27 54 -31 13 -3 30 -12 37 -20 45 -45 354 -49 354 -5 0 5 7 6
17 3 10 -4 14 -2 10 4 -4 7 5 14 23 18 17 4 43 18 57 33 l26 26 -23 18 c-12
10 -30 18 -40 18 -10 0 -24 10 -32 23 -30 44 -82 87 -135 109 -52 21 -64 33
-42 40 7 2 6 8 -3 16 -12 9 -19 9 -34 -3z m-24 -64 c0 -6 14 -6 35 0 25 7 43
6 68 -4 77 -33 153 -130 127 -162 -38 -46 -283 -55 -381 -14 -37 15 -36 33 3
91 36 52 96 92 124 81 12 -4 15 -3 10 5 -4 7 -2 12 3 12 6 0 11 -4 11 -9z
m-176 -186 c12 -8 65 -22 117 -29 80 -13 84 -14 29 -11 -36 3 -89 9 -119 15
-29 5 -55 10 -57 10 -2 0 -4 7 -4 15 0 19 5 19 34 0z m449 2 c3 -8 0 -14 -6
-15 -7 0 -30 -5 -52 -10 -69 -17 -122 -22 -105 -12 8 5 29 10 45 10 17 0 46 8
65 19 44 23 47 24 53 8z m-190 -44 c-7 -2 -21 -2 -30 0 -10 3 -4 5 12 5 17 0
24 -2 18 -5z"/>
<path d="M622 714 c-32 -22 -82 -93 -82 -115 0 -23 26 -37 81 -44 l44 -5 -47
15 c-29 10 -48 22 -48 31 0 26 39 91 67 113 33 24 18 29 -15 5z"/>
<path d="M654 702 c-40 -34 -72 -122 -44 -122 11 0 14 7 25 54 3 16 19 41 35
57 31 31 18 40 -16 11z"/>
<path d="M840 698 c0 -2 11 -25 25 -52 28 -55 25 -63 -28 -83 -18 -6 -24 -12
-14 -12 10 -1 34 6 53 14 30 12 34 18 29 37 -11 36 -65 116 -65 96z"/>
<path d="M1365 709 c-19 -7 -18 -8 3 -8 28 -1 24 -21 -15 -89 -21 -36 -22 -43
-8 -40 9 1 24 17 33 33 9 17 19 32 22 35 3 3 6 19 7 36 3 35 -11 46 -42 33z"/>
</g>
</svg>
